<svg width="48" height="48" xmlns="http://www.w3.org/2000/svg" xmlns:xlink="http://www.w3.org/1999/xlink"><defs><linearGradient x1="30.235%" y1="100%" x2="76.752%" y2="55.632%" id="b"><stop stop-color="#FFF" offset="0%"/><stop stop-color="#FFC8BF" offset="100%"/></linearGradient><linearGradient x1="64.551%" y1="66.475%" x2="33.814%" y2="15.795%" id="d"><stop stop-color="#FFF" offset="0%"/><stop stop-color="#FFB7AB" stop-opacity=".83" offset="100%"/></linearGradient><linearGradient x1="14.339%" y1="50%" x2="73.501%" y2="33.448%" id="e"><stop stop-color="#FFF" offset="0%"/><stop stop-color="#FFC9BF" offset="100%"/></linearGradient><linearGradient x1="56.248%" y1="21.712%" x2="44.17%" y2="32.024%" id="f"><stop stop-color="#FFF" offset="0%"/><stop stop-color="#FDDEDA" stop-opacity=".83" offset="100%"/></linearGradient><linearGradient x1="64.653%" y1="45.592%" x2="30.73%" y2="72.222%" id="g"><stop stop-color="#FFF" offset="0%"/><stop stop-color="#FFE1D4" offset="100%"/></linearGradient><linearGradient x1="49.282%" y1="46.101%" x2="57.203%" y2="82.429%" id="h"><stop stop-color="#FFF" offset="0%"/><stop stop-color="#FFD0C3" offset="100%"/></linearGradient><path d="M19.824 17.18a9.797 9.797 0 0 1-4.924-1.935 44.992 44.992 0 0 0-7.325 2.418C5.558 21.22 3.79 23 2.145 23a2.363 2.363 0 0 1-1.012-.251A1.935 1.935 0 0 1 0 20.969c0-.644.128-2.159 6.185-4.828a47.87 47.87 0 0 0 3.407-7.877c-.756-1.528-2.401-5.337-1.28-7.246.486-.626 1.226-1 2.016-1.018a2.154 2.154 0 0 1 1.64.89c.915 1.16.787 3.738-.225 7.264a23.024 23.024 0 0 0 4.04 5.209 20.64 20.64 0 0 1 3.913-.51c3.029.13 3.406 1.4 3.285 2.29.128 2.036-2.017 2.036-3.157 2.036Zm-17.8 3.938.25-.13a4.938 4.938 0 0 0 2.144-1.778 7.276 7.276 0 0 0-2.395 1.908Zm8.458-19.19h-.128c-.128 0-.25 0-.25.128a4.948 4.948 0 0 0 .378 3.307 5.326 5.326 0 0 0 0-3.436Zm.506 9.275-.096-.174s-1.422 3.101-2.05 4.513c0 0 1.012-.38 2.274-.76 1.011-.291 2.4-.646 2.4-.646a19.044 19.044 0 0 1-2.528-2.933Zm8.586 3.436c-.55-.025-1.1.018-1.639.13.58.349 1.246.526 1.92.508.43.095.88.05 1.282-.128.076-.258-.173-.51-1.563-.51Z" id="a"/></defs><g fill="none" fill-rule="evenodd"><path d="M2 0h44a2 2 0 0 1 2 2v44a2 2 0 0 1-2 2H2a2 2 0 0 1-2-2V2a2 2 0 0 1 2-2Z" fill="#E0394E"/><g transform="translate(13 13)"><mask id="c" fill="#fff"><use xlink:href="#a"/></mask><use fill="#FFF" fill-rule="nonzero" xlink:href="#a"/><path d="M6.735 15.02a50.291 50.291 0 0 1-1.071 2.135c-1.248 2.305-1.748 2.654-1.748 2.654-1.108.121-1.735.067-1.882-.163-.143-.223-.576-1.053-1.299-2.491l4.332-4.283 1.668 2.148Z" fill="url(#b)" fill-rule="nonzero" mask="url(#c)"/><path d="M15.61 10.022c-.523 1.016-1.463 2.153-1.702 3.285-.068.484-.933.853-1.148 1.285l-2.15-3.035c0 .26.328-.633.902-2.463.153-.579.486-1.502.486-1.502l3.611 2.43Z" fill="url(#d)" fill-rule="nonzero" mask="url(#c)" transform="rotate(-1 13.11 11.092)"/><path d="M13.033 13.758c.159.13.414.32.764.571.526.377.923.698 1.421 1.027l-3.426 2.402-2.574-3.429 3.815-.57Z" fill="url(#e)" fill-rule="nonzero" mask="url(#c)" transform="rotate(3 12.218 15.758)"/><path d="M10.407 13.965c.125 1.475-.997 3.724-.66 5.752a4.492 4.492 0 0 1-.337 1.248L7.417 18.09c.073-.096.363-.772.74-1.52.378-.714.555-1.146.887-1.84l1.363-.764Z" fill="url(#f)" fill-rule="nonzero" opacity=".434" mask="url(#c)" transform="rotate(6 8.917 17.465)"/><path d="M18.213 14.732a15.644 15.644 0 0 1-2.333-1.216 8.746 8.746 0 0 1-1.718-1.487l1.813-1.297 4.187 3.914-1.949.086Z" fill="url(#g)" fill-rule="nonzero" opacity=".74" mask="url(#c)" transform="rotate(5 17.162 12.732)"/><path d="M10.657 4.468c-.06.204-.154.895-.45 2.189-.226.99-.394 1.725-.448 1.983L8.657 7.085l1.818-4.445.182 1.828Z" fill="url(#h)" fill-rule="nonzero" opacity=".543" mask="url(#c)" transform="rotate(5 9.657 5.64)"/></g></g></svg>